OpenSim_Sub02_CSStiffKnee_LCS.mot
version=1
nRows=58
nColumns=11
inDegrees=no
endheader
time	Bot_Shank	2nd_Bot_Shank	2nd_Top_Shank	Top_Shank	Bot_Thigh	Med_Thigh	Top_Thigh	BNOx	BNOy	BNOZ
51.68000000	9266.78212236	9729.42574001	11266.53413493	11156.78297253	12884.76988332	13649.11729066	13729.51551197	152.79728624	-59.76118708	-148.74108735
51.69000000	9269.72232951	9728.35401685	11261.29606989	11134.13008342	12884.19583056	13646.88886329	13729.01578084	151.91168993	-59.61408807	-147.63992428
51.70000000	9271.69634295	9726.72898397	11255.51017214	11109.57453993	12883.55600931	13646.27774563	13728.98714793	151.06421367	-59.47085597	-146.58744512
51.71000000	9272.97572663	9724.59609549	11249.55526640	11083.80082671	12882.99870570	13647.77118882	13729.83173781	150.25816146	-59.33619844	-145.58289786
51.72000000	9273.83204453	9722.00080553	11243.81017735	11057.49342844	12882.67220583	13651.85644398	13731.95167503	149.49683734	-59.21482314	-144.62553052
51.73000000	9274.53686061	9718.98856821	11238.65372967	11031.33682977	12882.72479584	13659.02076226	13735.74908417	148.78354533	-59.11143772	-143.71459109
51.74000000	9275.35618582	9715.60365885	11234.45919877	11006.00836769	12883.30154153	13669.72991920	13741.61171214	148.12135510	-59.03055257	-142.84911087
51.75000000	9276.34015754	9711.84452706	11231.38413110	10981.90751286	12884.42231990	13683.61482645	13749.36837433	147.50422656	-58.96900903	-142.01969676
51.76000000	9277.25848575	9707.65009319	11229.30583362	10959.07277783	12885.94438320	13699.22187798	13758.12181436	146.91428569	-58.91368609	-141.20601201
51.77000000	9277.86213899	9702.95529917	11228.08288439	10937.51855167	12887.71411520	13715.02498759	13766.92625123	146.33286759	-58.85079691	-140.38698852
51.78000000	9277.90208582	9697.69508693	11227.57386150	10917.25922346	12889.57789967	13729.49806910	13774.83590395	145.74130735	-58.76655469	-139.54155819
51.79000000	9277.12929477	9691.80439839	11227.63734302	10898.30918230	12891.38212037	13741.11503632	13780.90499153	145.12094008	-58.64717260	-138.64865290
51.80000000	9275.29473439	9685.21817548	11228.13190702	10880.68281727	12892.97316107	13748.34980306	13784.18773297	144.45310086	-58.47886382	-137.68720455
51.81000000	9272.14937323	9677.87136012	11228.91613157	10864.39451745	12894.19740555	13749.67628314	13783.73834728	143.71912480	-58.24784153	-136.63614503
51.82000000	9267.44417984	9669.69889423	11229.84859475	10849.45867192	12894.90123758	13743.56839036	13778.61105348	142.90034699	-57.94031893	-135.47440623
51.83000000	9260.93012275	9660.63571974	11230.78787463	10835.88966978	12894.93104091	13728.50003854	13767.86007056	141.97810254	-57.54250917	-134.18092005
51.84000000	9252.35817052	9650.61677858	11231.59254929	10823.70190010	12894.13319933	13702.94514150	13750.53961755	140.93372653	-57.04062545	-132.73461837
51.85000000	9241.48413636	9639.57965665	11232.12230168	10812.91245364	12892.35499152	13665.40306627	13725.71102166	139.74868948	-56.42096384	-131.11469774
51.86000000	9228.43866764	9627.66650529	11232.32230007	10803.74745028	12889.51293686	13616.34250574	13692.98557640	138.41493846	-55.67623329	-129.32083147
51.87000000	9213.98778162	9615.36622849	11232.28261626	10796.78732872	12885.64092247	13559.57029683	13652.90680623	136.94217904	-54.81001310	-127.38740235
51.88000000	9198.95904084	9603.20131853	11232.10735819	10792.64684892	12880.78420436	13499.21662674	13606.10853646	135.34183701	-53.82693549	-125.35215532
51.89000000	9184.18000786	9591.69426768	11231.90063376	10791.94077078	12874.98803850	13439.41168265	13553.22459237	133.62533812	-52.73163270	-123.25283533
51.90000000	9170.47824523	9581.36756823	11231.76655092	10795.28385425	12868.29768090	13384.28565178	13494.88879927	131.80410815	-51.52873698	-121.12718733
51.91000000	9158.68131550	9572.74371245	11231.80921758	10803.29085925	12860.75838754	13337.96872133	13431.73498244	129.88957287	-50.22288055	-119.01295626
51.92000000	9149.61083597	9566.34124531	11232.13155568	10816.56951727	12852.41505971	13304.55747105	13364.40402216	127.89329551	-48.81891592	-116.94771964
51.93000000	9143.62843889	9562.37330731	11232.74472614	10835.18376702	12843.28515464	13285.54826122	13294.08264399	125.83747655	-47.33873700	-114.95610175
51.94000000	9140.31604987	9560.53535717	11233.50434857	10858.27578070	12833.33961001	13278.02989954	13222.88281921	123.76234721	-45.83312413	-113.04077017
51.95000000	9139.18006798	9560.47270820	11234.25097608	10884.89844334	12822.54485735	13278.66425487	13153.00614326	121.70988530	-44.35565573	-111.20226565
51.96000000	9139.72689233	9561.83067370	11234.82516174	10914.10463996	12810.86732822	13284.11319604	13086.65421163	119.72206862	-42.95991022	-109.44112893
51.97000000	9141.46292201	9564.25456700	11235.06745862	10944.94725558	12798.27345414	13291.03859191	13026.02861975	117.84087498	-41.69946603	-107.75790077
51.98000000	9143.89455611	9567.38970141	11234.81841982	10976.47917521	12784.72966668	13296.10231132	12973.33096310	116.10828217	-40.62790156	-106.15312192
51.99000000	9146.52819372	9570.88139024	11233.91859841	11007.75328389	12770.20239736	13295.96622313	12930.76283714	114.56626799	-39.79879525	-104.62733311
52.00000000	9148.87620552	9574.38049844	11232.21497386	11037.83128654	12754.66263438	13287.35317939	12900.48513434	113.25618710	-39.26467496	-103.18133451
52.01000000	9150.68310730	9577.75371061	11229.80435104	11066.11776216	12738.25850562	13269.35675491	12883.07641865	112.19516901	-39.03722834	-101.82601084
52.02000000	9151.99497958	9581.14806872	11227.10806689	11092.46269530	12721.36824969	13244.15017716	12877.05975330	111.36887395	-39.07509011	-100.58534702
52.03000000	9152.87805697	9584.72935151	11224.56914737	11116.74583770	12704.38548387	13214.11249199	12880.82082896	110.76085900	-39.33334940	-99.48420347
52.04000000	9153.39857408	9588.66333770	11222.63061845	11138.84694111	12687.70382548	13181.62274523	12892.74533626	110.35468124	-39.76709534	-98.54744062
52.05000000	9153.62276550	9593.11580601	11221.73550610	11158.64575727	12671.71689179	13149.05998273	12911.21896588	110.13389775	-40.33141705	-97.79991889
52.06000000	9153.61686584	9598.25253519	11222.32683626	11176.02203793	12656.81830011	13118.80325034	12934.62740846	110.08206562	-40.98140364	-97.26649873
52.07000000	9153.44710971	9604.23930394	11224.84763491	11190.85553483	12643.40166772	13093.23159390	12961.35635466	110.18274191	-41.67214424	-96.97204054
52.08000000	9153.17973171	9611.24189102	11229.74092801	11203.02599971	12631.86061192	13074.72405925	12989.79149514	110.41948372	-42.35872798	-96.94140477
52.09000000	9152.88034676	9619.41921690	11237.43720801	11212.41906255	12622.58165974	13065.61221151	13018.32695868	110.77618607	-42.99706041	-97.19911609
52.10000000	9152.59048015	9628.66358844	11247.87972734	11219.14886940	12615.67570420	13066.38180193	13045.68490575	111.24988142	-43.57478637	-97.75664733
52.11000000	9152.32036378	9638.52097191	11260.37879638	11223.62641677	12610.89557996	13075.12080433	13071.01362169	111.85466830	-44.12078106	-98.60851646
52.12000000	9152.07813820	9648.51418706	11274.20242493	11226.28254019	12607.97019206	13089.75694501	13093.48987043	112.60578573	-44.66667522	-99.74810832
52.13000000	9151.87194396	9658.16605365	11288.61862280	11227.54807520	12606.62844552	13108.21795030	13112.29041593	113.51847278	-45.24409957	-101.16880778
52.14000000	9151.70992158	9666.99939143	11302.89539980	11227.85385731	12606.59924538	13128.43154649	13126.59202215	114.60796849	-45.88468484	-102.86399968
52.15000000	9151.60021162	9674.53702014	11316.30076571	11227.63072207	12607.61149667	13148.32545990	13135.57145303	115.88951192	-46.62006174	-104.82706888
52.16000000	9151.55095461	9680.30175954	11328.10273035	11227.30950500	12609.39410443	13165.82741683	13138.40547251	117.37834211	-47.48186101	-107.05140023
52.17000000	9151.57029109	9683.81642939	11337.56930351	11227.32104164	12611.67597367	13178.86514359	13134.27084456	119.08969812	-48.50171336	-109.53037859
52.18000000	9151.66636160	9684.60384943	11343.96849501	11228.09616751	12614.18600944	13185.36636650	13122.34433313	121.03881900	-49.71124952	-112.25738880
52.19000000	9151.84730669	9682.18683942	11346.56831464	11230.06571815	12616.65311677	13183.25881186	13101.80270216	123.24094380	-51.14210022	-115.22581573
52.20000000	9152.12015416	9676.10553462	11344.65667985	11233.63890056	12618.80786920	13170.53940521	13071.88701979	125.71052462	-52.82436717	-118.42855634
52.21000000	9152.44867435	9666.57321120	11338.29541763	11238.38411277	12620.44570412	13147.89519188	13034.33817953	128.43142116	-54.72871185	-121.83954168
52.22000000	9152.74044465	9654.67757912	11328.55169088	11242.77751225	12621.44631929	13119.50777800	12994.14443644	131.34775252	-56.74858079	-125.40806532
52.23000000	9152.89928696	9641.56478823	11316.55985077	11245.22226016	12621.69504375	13089.79231707	12956.51107224	134.40098182	-58.77226010	-129.08177429
52.24000000	9152.82902320	9628.38098838	11303.45424847	11244.12151768	12621.07720654	13063.16396259	12926.64336862	137.53257223	-60.68803590	-132.80831562
52.25000000	9152.43347525	9616.27232941	11290.36923517	11237.87844599	12619.47813670	13044.03786808	12909.74660730	140.68398689	-62.38419429	-136.53533632
